<svg xmlns="http://www.w3.org/2000/svg" width="1280" height="720" viewBox="0 0 1280 720">
  <rect width="100%" height="100%" fill="#FFFFFF" />
  <text x="110" y="36" font-size="30" font-weight="700" fill="#111827">Synthetic Transaction Projection (36 Months)</text>
  <text x="110" y="88" font-size="16" fill="#4B5563">Monthly transaction counts from workbook sheet MarketplaceFees</text>
  <text x="32" y="82" font-size="14" fill="#6B7280">Transactions</text>
  <rect x="110.00" y="100.00" width="1130.00" height="500.00" fill="#FFFFFF" stroke="#D1D5DB" />
  <line x1="110.00" y1="600.00" x2="1240.00" y2="600.00" stroke="#E5E7EB" stroke-width="1" /><text x="96.00" y="605.00" text-anchor="end" font-size="14" fill="#6B7280">0</text><line x1="110.00" y1="516.67" x2="1240.00" y2="516.67" stroke="#E5E7EB" stroke-width="1" /><text x="96.00" y="521.67" text-anchor="end" font-size="14" fill="#6B7280">73</text><line x1="110.00" y1="433.33" x2="1240.00" y2="433.33" stroke="#E5E7EB" stroke-width="1" /><text x="96.00" y="438.33" text-anchor="end" font-size="14" fill="#6B7280">147</text><line x1="110.00" y1="350.00" x2="1240.00" y2="350.00" stroke="#E5E7EB" stroke-width="1" /><text x="96.00" y="355.00" text-anchor="end" font-size="14" fill="#6B7280">220</text><line x1="110.00" y1="266.67" x2="1240.00" y2="266.67" stroke="#E5E7EB" stroke-width="1" /><text x="96.00" y="271.67" text-anchor="end" font-size="14" fill="#6B7280">293</text><line x1="110.00" y1="183.33" x2="1240.00" y2="183.33" stroke="#E5E7EB" stroke-width="1" /><text x="96.00" y="188.33" text-anchor="end" font-size="14" fill="#6B7280">367</text><line x1="110.00" y1="100.00" x2="1240.00" y2="100.00" stroke="#E5E7EB" stroke-width="1" /><text x="96.00" y="105.00" text-anchor="end" font-size="14" fill="#6B7280">440</text>
  <line x1="110.00" y1="600.00" x2="1240.00" y2="600.00" stroke="#6B7280" stroke-width="1.5" />
  <line x1="110.00" y1="100.00" x2="110.00" y2="600.00" stroke="#6B7280" stroke-width="1.5" />
  <line x1="110.00" y1="600.00" x2="110.00" y2="608.00" stroke="#9CA3AF" stroke-width="1" /><text x="110.00" y="630.00" text-anchor="middle" font-size="13" fill="#6B7280">2026-03</text><line x1="206.86" y1="600.00" x2="206.86" y2="608.00" stroke="#9CA3AF" stroke-width="1" /><text x="206.86" y="630.00" text-anchor="middle" font-size="13" fill="#6B7280">2026-06</text><line x1="303.71" y1="600.00" x2="303.71" y2="608.00" stroke="#9CA3AF" stroke-width="1" /><text x="303.71" y="630.00" text-anchor="middle" font-size="13" fill="#6B7280">2026-09</text><line x1="400.57" y1="600.00" x2="400.57" y2="608.00" stroke="#9CA3AF" stroke-width="1" /><text x="400.57" y="630.00" text-anchor="middle" font-size="13" fill="#6B7280">2026-12</text><line x1="497.43" y1="600.00" x2="497.43" y2="608.00" stroke="#9CA3AF" stroke-width="1" /><text x="497.43" y="630.00" text-anchor="middle" font-size="13" fill="#6B7280">2027-03</text><line x1="594.29" y1="600.00" x2="594.29" y2="608.00" stroke="#9CA3AF" stroke-width="1" /><text x="594.29" y="630.00" text-anchor="middle" font-size="13" fill="#6B7280">2027-06</text><line x1="691.14" y1="600.00" x2="691.14" y2="608.00" stroke="#9CA3AF" stroke-width="1" /><text x="691.14" y="630.00" text-anchor="middle" font-size="13" fill="#6B7280">2027-09</text><line x1="788.00" y1="600.00" x2="788.00" y2="608.00" stroke="#9CA3AF" stroke-width="1" /><text x="788.00" y="630.00" text-anchor="middle" font-size="13" fill="#6B7280">2027-12</text><line x1="884.86" y1="600.00" x2="884.86" y2="608.00" stroke="#9CA3AF" stroke-width="1" /><text x="884.86" y="630.00" text-anchor="middle" font-size="13" fill="#6B7280">2028-03</text><line x1="981.71" y1="600.00" x2="981.71" y2="608.00" stroke="#9CA3AF" stroke-width="1" /><text x="981.71" y="630.00" text-anchor="middle" font-size="13" fill="#6B7280">2028-06</text><line x1="1078.57" y1="600.00" x2="1078.57" y2="608.00" stroke="#9CA3AF" stroke-width="1" /><text x="1078.57" y="630.00" text-anchor="middle" font-size="13" fill="#6B7280">2028-09</text><line x1="1175.43" y1="600.00" x2="1175.43" y2="608.00" stroke="#9CA3AF" stroke-width="1" /><text x="1175.43" y="630.00" text-anchor="middle" font-size="13" fill="#6B7280">2028-12</text><line x1="1240.00" y1="600.00" x2="1240.00" y2="608.00" stroke="#9CA3AF" stroke-width="1" /><text x="1240.00" y="630.00" text-anchor="middle" font-size="13" fill="#6B7280">2029-02</text>
  <path d="M 110.00 600.00 L 142.29 600.00 L 174.57 600.00 L 206.86 600.00 L 239.14 600.00 L 271.43 600.00 L 303.71 600.00 L 336.00 600.00 L 368.29 600.00 L 400.57 600.00 L 432.86 600.00 L 465.14 600.00 L 497.43 588.64 L 529.71 569.32 L 562.00 548.86 L 594.29 529.55 L 626.57 510.23 L 658.86 492.05 L 691.14 470.45 L 723.43 451.14 L 755.71 426.14 L 788.00 377.27 L 820.29 407.95 L 852.57 375.00 L 884.86 354.55 L 917.14 334.09 L 949.43 311.36 L 981.71 296.59 L 1014.00 273.86 L 1046.29 252.27 L 1078.57 244.32 L 1110.86 222.73 L 1143.14 193.18 L 1175.43 145.45 L 1207.71 161.36 L 1240.00 145.45" fill="none" stroke="#EA580C" stroke-width="3" stroke-linecap="round" stroke-linejoin="round" />
  <line x1="110.00" y1="60.00" x2="138.00" y2="60.00" stroke="#EA580C" stroke-width="4" /><text x="146.00" y="65.00" font-size="15" fill="#111827">Transaction Count</text>
</svg>
