<svg xmlns="http://www.w3.org/2000/svg" width="1280" height="720" viewBox="0 0 1280 720">
  <rect width="100%" height="100%" fill="#FFFFFF" />
  <text x="110" y="36" font-size="30" font-weight="700" fill="#111827">Synthetic Audience Projection (36 Months)</text>
  <text x="110" y="88" font-size="16" fill="#4B5563">MAU from workbook sheet MAU &amp; Operating Metrics and active subscribers from workbook sheet Subscriptions</text>
  <text x="32" y="82" font-size="14" fill="#6B7280">Users</text>
  <rect x="110.00" y="100.00" width="1130.00" height="500.00" fill="#FFFFFF" stroke="#D1D5DB" />
  <line x1="110.00" y1="600.00" x2="1240.00" y2="600.00" stroke="#E5E7EB" stroke-width="1" /><text x="96.00" y="605.00" text-anchor="end" font-size="14" fill="#6B7280">0</text><line x1="110.00" y1="516.67" x2="1240.00" y2="516.67" stroke="#E5E7EB" stroke-width="1" /><text x="96.00" y="521.67" text-anchor="end" font-size="14" fill="#6B7280">3.1K</text><line x1="110.00" y1="433.33" x2="1240.00" y2="433.33" stroke="#E5E7EB" stroke-width="1" /><text x="96.00" y="438.33" text-anchor="end" font-size="14" fill="#6B7280">6.2K</text><line x1="110.00" y1="350.00" x2="1240.00" y2="350.00" stroke="#E5E7EB" stroke-width="1" /><text x="96.00" y="355.00" text-anchor="end" font-size="14" fill="#6B7280">9.3K</text><line x1="110.00" y1="266.67" x2="1240.00" y2="266.67" stroke="#E5E7EB" stroke-width="1" /><text x="96.00" y="271.67" text-anchor="end" font-size="14" fill="#6B7280">12.3K</text><line x1="110.00" y1="183.33" x2="1240.00" y2="183.33" stroke="#E5E7EB" stroke-width="1" /><text x="96.00" y="188.33" text-anchor="end" font-size="14" fill="#6B7280">15.4K</text><line x1="110.00" y1="100.00" x2="1240.00" y2="100.00" stroke="#E5E7EB" stroke-width="1" /><text x="96.00" y="105.00" text-anchor="end" font-size="14" fill="#6B7280">18.5K</text>
  <line x1="110.00" y1="600.00" x2="1240.00" y2="600.00" stroke="#6B7280" stroke-width="1.5" />
  <line x1="110.00" y1="100.00" x2="110.00" y2="600.00" stroke="#6B7280" stroke-width="1.5" />
  <line x1="110.00" y1="600.00" x2="110.00" y2="608.00" stroke="#9CA3AF" stroke-width="1" /><text x="110.00" y="630.00" text-anchor="middle" font-size="13" fill="#6B7280">2026-03</text><line x1="206.86" y1="600.00" x2="206.86" y2="608.00" stroke="#9CA3AF" stroke-width="1" /><text x="206.86" y="630.00" text-anchor="middle" font-size="13" fill="#6B7280">2026-06</text><line x1="303.71" y1="600.00" x2="303.71" y2="608.00" stroke="#9CA3AF" stroke-width="1" /><text x="303.71" y="630.00" text-anchor="middle" font-size="13" fill="#6B7280">2026-09</text><line x1="400.57" y1="600.00" x2="400.57" y2="608.00" stroke="#9CA3AF" stroke-width="1" /><text x="400.57" y="630.00" text-anchor="middle" font-size="13" fill="#6B7280">2026-12</text><line x1="497.43" y1="600.00" x2="497.43" y2="608.00" stroke="#9CA3AF" stroke-width="1" /><text x="497.43" y="630.00" text-anchor="middle" font-size="13" fill="#6B7280">2027-03</text><line x1="594.29" y1="600.00" x2="594.29" y2="608.00" stroke="#9CA3AF" stroke-width="1" /><text x="594.29" y="630.00" text-anchor="middle" font-size="13" fill="#6B7280">2027-06</text><line x1="691.14" y1="600.00" x2="691.14" y2="608.00" stroke="#9CA3AF" stroke-width="1" /><text x="691.14" y="630.00" text-anchor="middle" font-size="13" fill="#6B7280">2027-09</text><line x1="788.00" y1="600.00" x2="788.00" y2="608.00" stroke="#9CA3AF" stroke-width="1" /><text x="788.00" y="630.00" text-anchor="middle" font-size="13" fill="#6B7280">2027-12</text><line x1="884.86" y1="600.00" x2="884.86" y2="608.00" stroke="#9CA3AF" stroke-width="1" /><text x="884.86" y="630.00" text-anchor="middle" font-size="13" fill="#6B7280">2028-03</text><line x1="981.71" y1="600.00" x2="981.71" y2="608.00" stroke="#9CA3AF" stroke-width="1" /><text x="981.71" y="630.00" text-anchor="middle" font-size="13" fill="#6B7280">2028-06</text><line x1="1078.57" y1="600.00" x2="1078.57" y2="608.00" stroke="#9CA3AF" stroke-width="1" /><text x="1078.57" y="630.00" text-anchor="middle" font-size="13" fill="#6B7280">2028-09</text><line x1="1175.43" y1="600.00" x2="1175.43" y2="608.00" stroke="#9CA3AF" stroke-width="1" /><text x="1175.43" y="630.00" text-anchor="middle" font-size="13" fill="#6B7280">2028-12</text><line x1="1240.00" y1="600.00" x2="1240.00" y2="608.00" stroke="#9CA3AF" stroke-width="1" /><text x="1240.00" y="630.00" text-anchor="middle" font-size="13" fill="#6B7280">2029-02</text>
  <path d="M 110.00 583.45 L 142.29 578.67 L 174.57 570.27 L 206.86 568.38 L 239.14 565.09 L 271.43 559.42 L 303.71 556.99 L 336.00 550.75 L 368.29 527.34 L 400.57 465.05 L 432.86 517.38 L 465.14 512.14 L 497.43 518.78 L 529.71 515.11 L 562.00 499.15 L 594.29 497.51 L 626.57 490.76 L 658.86 486.71 L 691.14 481.17 L 723.43 470.99 L 755.71 428.95 L 788.00 305.67 L 820.29 419.72 L 852.57 417.13 L 884.86 429.41 L 917.14 424.07 L 949.43 401.41 L 981.71 405.30 L 1014.00 399.61 L 1046.29 393.34 L 1078.57 391.96 L 1110.86 378.87 L 1143.14 314.47 L 1175.43 145.45 L 1207.71 311.18 L 1240.00 308.72" fill="none" stroke="#2563EB" stroke-width="3" stroke-linecap="round" stroke-linejoin="round" /><path d="M 110.00 599.86 L 142.29 599.81 L 174.57 599.68 L 206.86 599.62 L 239.14 599.54 L 271.43 599.43 L 303.71 599.38 L 336.00 599.24 L 368.29 598.81 L 400.57 597.70 L 432.86 598.54 L 465.14 598.41 L 497.43 598.49 L 529.71 598.35 L 562.00 598.00 L 594.29 597.95 L 626.57 597.76 L 658.86 597.62 L 691.14 597.49 L 723.43 597.22 L 755.71 596.27 L 788.00 593.52 L 820.29 595.98 L 852.57 595.90 L 884.86 596.14 L 917.14 595.98 L 949.43 595.41 L 981.71 595.49 L 1014.00 595.33 L 1046.29 595.14 L 1078.57 595.09 L 1110.86 594.76 L 1143.14 593.20 L 1175.43 589.12 L 1207.71 593.06 L 1240.00 592.98" fill="none" stroke="#059669" stroke-width="3" stroke-linecap="round" stroke-linejoin="round" />
  <line x1="110.00" y1="60.00" x2="138.00" y2="60.00" stroke="#2563EB" stroke-width="4" /><text x="146.00" y="65.00" font-size="15" fill="#111827">MAU</text><line x1="410.00" y1="60.00" x2="438.00" y2="60.00" stroke="#059669" stroke-width="4" /><text x="446.00" y="65.00" font-size="15" fill="#111827">Active Subscribers</text>
</svg>
