<svg xmlns="http://www.w3.org/2000/svg" width="1280" height="720" viewBox="0 0 1280 720">
  <rect width="100%" height="100%" fill="#FFFFFF" />
  <text x="110" y="36" font-size="30" font-weight="700" fill="#111827">Synthetic Audience Projection (36 Months)</text>
  <text x="110" y="88" font-size="16" fill="#4B5563">MAU and active subscribers from subscriptions CSV</text>
  <text x="32" y="82" font-size="14" fill="#6B7280">Users</text>
  <rect x="110.00" y="100.00" width="1130.00" height="500.00" fill="#FFFFFF" stroke="#D1D5DB" />
  <line x1="110.00" y1="600.00" x2="1240.00" y2="600.00" stroke="#E5E7EB" stroke-width="1" /><text x="96.00" y="605.00" text-anchor="end" font-size="14" fill="#6B7280">0</text><line x1="110.00" y1="516.67" x2="1240.00" y2="516.67" stroke="#E5E7EB" stroke-width="1" /><text x="96.00" y="521.67" text-anchor="end" font-size="14" fill="#6B7280">7.6K</text><line x1="110.00" y1="433.33" x2="1240.00" y2="433.33" stroke="#E5E7EB" stroke-width="1" /><text x="96.00" y="438.33" text-anchor="end" font-size="14" fill="#6B7280">15.2K</text><line x1="110.00" y1="350.00" x2="1240.00" y2="350.00" stroke="#E5E7EB" stroke-width="1" /><text x="96.00" y="355.00" text-anchor="end" font-size="14" fill="#6B7280">22.8K</text><line x1="110.00" y1="266.67" x2="1240.00" y2="266.67" stroke="#E5E7EB" stroke-width="1" /><text x="96.00" y="271.67" text-anchor="end" font-size="14" fill="#6B7280">30.5K</text><line x1="110.00" y1="183.33" x2="1240.00" y2="183.33" stroke="#E5E7EB" stroke-width="1" /><text x="96.00" y="188.33" text-anchor="end" font-size="14" fill="#6B7280">38.1K</text><line x1="110.00" y1="100.00" x2="1240.00" y2="100.00" stroke="#E5E7EB" stroke-width="1" /><text x="96.00" y="105.00" text-anchor="end" font-size="14" fill="#6B7280">45.7K</text>
  <line x1="110.00" y1="600.00" x2="1240.00" y2="600.00" stroke="#6B7280" stroke-width="1.5" />
  <line x1="110.00" y1="100.00" x2="110.00" y2="600.00" stroke="#6B7280" stroke-width="1.5" />
  <line x1="110.00" y1="600.00" x2="110.00" y2="608.00" stroke="#9CA3AF" stroke-width="1" /><text x="110.00" y="630.00" text-anchor="middle" font-size="13" fill="#6B7280">2026-03</text><line x1="206.86" y1="600.00" x2="206.86" y2="608.00" stroke="#9CA3AF" stroke-width="1" /><text x="206.86" y="630.00" text-anchor="middle" font-size="13" fill="#6B7280">2026-06</text><line x1="303.71" y1="600.00" x2="303.71" y2="608.00" stroke="#9CA3AF" stroke-width="1" /><text x="303.71" y="630.00" text-anchor="middle" font-size="13" fill="#6B7280">2026-09</text><line x1="400.57" y1="600.00" x2="400.57" y2="608.00" stroke="#9CA3AF" stroke-width="1" /><text x="400.57" y="630.00" text-anchor="middle" font-size="13" fill="#6B7280">2026-12</text><line x1="497.43" y1="600.00" x2="497.43" y2="608.00" stroke="#9CA3AF" stroke-width="1" /><text x="497.43" y="630.00" text-anchor="middle" font-size="13" fill="#6B7280">2027-03</text><line x1="594.29" y1="600.00" x2="594.29" y2="608.00" stroke="#9CA3AF" stroke-width="1" /><text x="594.29" y="630.00" text-anchor="middle" font-size="13" fill="#6B7280">2027-06</text><line x1="691.14" y1="600.00" x2="691.14" y2="608.00" stroke="#9CA3AF" stroke-width="1" /><text x="691.14" y="630.00" text-anchor="middle" font-size="13" fill="#6B7280">2027-09</text><line x1="788.00" y1="600.00" x2="788.00" y2="608.00" stroke="#9CA3AF" stroke-width="1" /><text x="788.00" y="630.00" text-anchor="middle" font-size="13" fill="#6B7280">2027-12</text><line x1="884.86" y1="600.00" x2="884.86" y2="608.00" stroke="#9CA3AF" stroke-width="1" /><text x="884.86" y="630.00" text-anchor="middle" font-size="13" fill="#6B7280">2028-03</text><line x1="981.71" y1="600.00" x2="981.71" y2="608.00" stroke="#9CA3AF" stroke-width="1" /><text x="981.71" y="630.00" text-anchor="middle" font-size="13" fill="#6B7280">2028-06</text><line x1="1078.57" y1="600.00" x2="1078.57" y2="608.00" stroke="#9CA3AF" stroke-width="1" /><text x="1078.57" y="630.00" text-anchor="middle" font-size="13" fill="#6B7280">2028-09</text><line x1="1175.43" y1="600.00" x2="1175.43" y2="608.00" stroke="#9CA3AF" stroke-width="1" /><text x="1175.43" y="630.00" text-anchor="middle" font-size="13" fill="#6B7280">2028-12</text><line x1="1240.00" y1="600.00" x2="1240.00" y2="608.00" stroke="#9CA3AF" stroke-width="1" /><text x="1240.00" y="630.00" text-anchor="middle" font-size="13" fill="#6B7280">2029-02</text>
  <path d="M 110.00 591.10 L 142.29 589.20 L 174.57 585.73 L 206.86 582.39 L 239.14 578.13 L 271.43 572.08 L 303.71 567.38 L 336.00 558.96 L 368.29 549.41 L 400.57 535.88 L 432.86 527.30 L 465.14 512.73 L 497.43 500.53 L 529.71 482.31 L 562.00 457.93 L 594.29 437.83 L 626.57 408.49 L 658.86 397.33 L 691.14 367.95 L 723.43 337.85 L 755.71 319.07 L 788.00 272.16 L 820.29 284.80 L 852.57 261.12 L 884.86 242.58 L 917.14 222.96 L 949.43 208.80 L 981.71 214.34 L 1014.00 196.58 L 1046.29 200.51 L 1078.57 202.29 L 1110.86 179.66 L 1143.14 168.28 L 1175.43 145.45 L 1207.71 174.90 L 1240.00 157.57" fill="none" stroke="#2563EB" stroke-width="3" stroke-linecap="round" stroke-linejoin="round" /><path d="M 110.00 599.92 L 142.29 599.91 L 174.57 599.87 L 206.86 599.84 L 239.14 599.78 L 271.43 599.70 L 303.71 599.64 L 336.00 599.53 L 368.29 599.40 L 400.57 599.21 L 432.86 599.07 L 465.14 598.84 L 497.43 598.62 L 529.71 598.31 L 562.00 597.90 L 594.29 597.53 L 626.57 596.98 L 658.86 596.71 L 691.14 596.11 L 723.43 595.48 L 755.71 595.02 L 788.00 594.03 L 820.29 594.11 L 852.57 593.50 L 884.86 592.97 L 917.14 592.40 L 949.43 591.93 L 981.71 591.86 L 1014.00 591.29 L 1046.29 591.18 L 1078.57 591.02 L 1110.86 590.31 L 1143.14 589.83 L 1175.43 589.08 L 1207.71 589.58 L 1240.00 588.94" fill="none" stroke="#059669" stroke-width="3" stroke-linecap="round" stroke-linejoin="round" />
  <line x1="110.00" y1="60.00" x2="138.00" y2="60.00" stroke="#2563EB" stroke-width="4" /><text x="146.00" y="65.00" font-size="15" fill="#111827">MAU</text><line x1="410.00" y1="60.00" x2="438.00" y2="60.00" stroke="#059669" stroke-width="4" /><text x="446.00" y="65.00" font-size="15" fill="#111827">Active Subscribers</text>
</svg>
