<svg xmlns="http://www.w3.org/2000/svg" width="1280" height="720" viewBox="0 0 1280 720">
  <rect width="100%" height="100%" fill="#FFFFFF" />
  <text x="110" y="36" font-size="30" font-weight="700" fill="#111827">Synthetic Revenue Projection (36 Months)</text>
  <text x="110" y="88" font-size="16" fill="#4B5563">Total revenue with marketplace fee, subscription, and ad components</text>
  <text x="32" y="82" font-size="14" fill="#6B7280">Revenue (USD)</text>
  <rect x="110.00" y="100.00" width="1130.00" height="500.00" fill="#FFFFFF" stroke="#D1D5DB" />
  <line x1="110.00" y1="600.00" x2="1240.00" y2="600.00" stroke="#E5E7EB" stroke-width="1" /><text x="96.00" y="605.00" text-anchor="end" font-size="14" fill="#6B7280">$0</text><line x1="110.00" y1="516.67" x2="1240.00" y2="516.67" stroke="#E5E7EB" stroke-width="1" /><text x="96.00" y="521.67" text-anchor="end" font-size="14" fill="#6B7280">$8.3K</text><line x1="110.00" y1="433.33" x2="1240.00" y2="433.33" stroke="#E5E7EB" stroke-width="1" /><text x="96.00" y="438.33" text-anchor="end" font-size="14" fill="#6B7280">$16.5K</text><line x1="110.00" y1="350.00" x2="1240.00" y2="350.00" stroke="#E5E7EB" stroke-width="1" /><text x="96.00" y="355.00" text-anchor="end" font-size="14" fill="#6B7280">$24.8K</text><line x1="110.00" y1="266.67" x2="1240.00" y2="266.67" stroke="#E5E7EB" stroke-width="1" /><text x="96.00" y="271.67" text-anchor="end" font-size="14" fill="#6B7280">$33.1K</text><line x1="110.00" y1="183.33" x2="1240.00" y2="183.33" stroke="#E5E7EB" stroke-width="1" /><text x="96.00" y="188.33" text-anchor="end" font-size="14" fill="#6B7280">$41.4K</text><line x1="110.00" y1="100.00" x2="1240.00" y2="100.00" stroke="#E5E7EB" stroke-width="1" /><text x="96.00" y="105.00" text-anchor="end" font-size="14" fill="#6B7280">$49.6K</text>
  <line x1="110.00" y1="600.00" x2="1240.00" y2="600.00" stroke="#6B7280" stroke-width="1.5" />
  <line x1="110.00" y1="100.00" x2="110.00" y2="600.00" stroke="#6B7280" stroke-width="1.5" />
  <line x1="110.00" y1="600.00" x2="110.00" y2="608.00" stroke="#9CA3AF" stroke-width="1" /><text x="110.00" y="630.00" text-anchor="middle" font-size="13" fill="#6B7280">2026-03</text><line x1="206.86" y1="600.00" x2="206.86" y2="608.00" stroke="#9CA3AF" stroke-width="1" /><text x="206.86" y="630.00" text-anchor="middle" font-size="13" fill="#6B7280">2026-06</text><line x1="303.71" y1="600.00" x2="303.71" y2="608.00" stroke="#9CA3AF" stroke-width="1" /><text x="303.71" y="630.00" text-anchor="middle" font-size="13" fill="#6B7280">2026-09</text><line x1="400.57" y1="600.00" x2="400.57" y2="608.00" stroke="#9CA3AF" stroke-width="1" /><text x="400.57" y="630.00" text-anchor="middle" font-size="13" fill="#6B7280">2026-12</text><line x1="497.43" y1="600.00" x2="497.43" y2="608.00" stroke="#9CA3AF" stroke-width="1" /><text x="497.43" y="630.00" text-anchor="middle" font-size="13" fill="#6B7280">2027-03</text><line x1="594.29" y1="600.00" x2="594.29" y2="608.00" stroke="#9CA3AF" stroke-width="1" /><text x="594.29" y="630.00" text-anchor="middle" font-size="13" fill="#6B7280">2027-06</text><line x1="691.14" y1="600.00" x2="691.14" y2="608.00" stroke="#9CA3AF" stroke-width="1" /><text x="691.14" y="630.00" text-anchor="middle" font-size="13" fill="#6B7280">2027-09</text><line x1="788.00" y1="600.00" x2="788.00" y2="608.00" stroke="#9CA3AF" stroke-width="1" /><text x="788.00" y="630.00" text-anchor="middle" font-size="13" fill="#6B7280">2027-12</text><line x1="884.86" y1="600.00" x2="884.86" y2="608.00" stroke="#9CA3AF" stroke-width="1" /><text x="884.86" y="630.00" text-anchor="middle" font-size="13" fill="#6B7280">2028-03</text><line x1="981.71" y1="600.00" x2="981.71" y2="608.00" stroke="#9CA3AF" stroke-width="1" /><text x="981.71" y="630.00" text-anchor="middle" font-size="13" fill="#6B7280">2028-06</text><line x1="1078.57" y1="600.00" x2="1078.57" y2="608.00" stroke="#9CA3AF" stroke-width="1" /><text x="1078.57" y="630.00" text-anchor="middle" font-size="13" fill="#6B7280">2028-09</text><line x1="1175.43" y1="600.00" x2="1175.43" y2="608.00" stroke="#9CA3AF" stroke-width="1" /><text x="1175.43" y="630.00" text-anchor="middle" font-size="13" fill="#6B7280">2028-12</text><line x1="1240.00" y1="600.00" x2="1240.00" y2="608.00" stroke="#9CA3AF" stroke-width="1" /><text x="1240.00" y="630.00" text-anchor="middle" font-size="13" fill="#6B7280">2029-02</text>
  <path d="M 110.00 598.14 L 142.29 597.52 L 174.57 596.09 L 206.86 595.61 L 239.14 594.82 L 271.43 593.73 L 303.71 593.16 L 336.00 591.84 L 368.29 587.45 L 400.57 576.14 L 432.86 581.90 L 465.14 583.77 L 497.43 576.09 L 529.71 560.82 L 562.00 540.76 L 594.29 526.56 L 626.57 511.67 L 658.86 494.18 L 691.14 477.38 L 723.43 459.11 L 755.71 433.88 L 788.00 371.04 L 820.29 403.93 L 852.57 379.11 L 884.86 375.37 L 917.14 359.69 L 949.43 333.48 L 981.71 317.95 L 1014.00 299.97 L 1046.29 280.26 L 1078.57 278.94 L 1110.86 251.78 L 1143.14 202.54 L 1175.43 145.45 L 1207.71 159.67 L 1240.00 158.16" fill="none" stroke="#2563EB" stroke-width="3" stroke-linecap="round" stroke-linejoin="round" /><path d="M 110.00 600.00 L 142.29 600.00 L 174.57 600.00 L 206.86 600.00 L 239.14 600.00 L 271.43 600.00 L 303.71 600.00 L 336.00 600.00 L 368.29 600.00 L 400.57 600.00 L 432.86 600.00 L 465.14 600.00 L 497.43 591.49 L 529.71 577.42 L 562.00 560.72 L 594.29 547.06 L 626.57 533.97 L 658.86 517.62 L 691.14 502.16 L 723.43 486.33 L 755.71 470.07 L 788.00 434.34 L 820.29 454.47 L 852.57 424.60 L 884.86 415.12 L 917.14 398.45 L 949.43 377.92 L 981.71 361.41 L 1014.00 345.00 L 1046.29 326.86 L 1078.57 325.75 L 1110.86 302.12 L 1143.14 267.77 L 1175.43 249.40 L 1207.71 245.61 L 1240.00 235.57" fill="none" stroke="#DC2626" stroke-width="3" stroke-linecap="round" stroke-linejoin="round" /><path d="M 110.00 598.99 L 142.29 598.59 L 174.57 597.58 L 206.86 597.18 L 239.14 596.57 L 271.43 595.77 L 303.71 595.37 L 336.00 594.36 L 368.29 591.13 L 400.57 582.87 L 432.86 586.10 L 465.14 588.11 L 497.43 588.71 L 529.71 587.71 L 562.00 585.09 L 594.29 584.68 L 626.57 583.27 L 658.86 582.27 L 691.14 581.26 L 723.43 579.24 L 755.71 572.19 L 788.00 551.64 L 820.29 558.29 L 852.57 563.93 L 884.86 568.76 L 917.14 569.97 L 949.43 565.74 L 981.71 566.35 L 1014.00 565.14 L 1046.29 563.73 L 1078.57 563.32 L 1110.86 560.91 L 1143.14 549.22 L 1175.43 518.79 L 1207.71 528.46 L 1240.00 536.92" fill="none" stroke="#059669" stroke-width="3" stroke-linecap="round" stroke-linejoin="round" /><path d="M 110.00 599.15 L 142.29 598.93 L 174.57 598.51 L 206.86 598.43 L 239.14 598.25 L 271.43 597.96 L 303.71 597.79 L 336.00 597.48 L 368.29 596.32 L 400.57 593.27 L 432.86 595.80 L 465.14 595.66 L 497.43 595.88 L 529.71 595.69 L 562.00 594.95 L 594.29 594.82 L 626.57 594.42 L 658.86 594.29 L 691.14 593.96 L 723.43 593.54 L 755.71 591.62 L 788.00 585.07 L 820.29 591.17 L 852.57 590.58 L 884.86 591.49 L 917.14 591.27 L 949.43 589.82 L 981.71 590.19 L 1014.00 589.83 L 1046.29 589.68 L 1078.57 589.86 L 1110.86 588.75 L 1143.14 585.56 L 1175.43 577.27 L 1207.71 585.60 L 1240.00 585.67" fill="none" stroke="#7C3AED" stroke-width="3" stroke-linecap="round" stroke-linejoin="round" />
  <line x1="110.00" y1="60.00" x2="138.00" y2="60.00" stroke="#2563EB" stroke-width="4" /><text x="146.00" y="65.00" font-size="15" fill="#111827">Total Revenue</text><line x1="410.00" y1="60.00" x2="438.00" y2="60.00" stroke="#DC2626" stroke-width="4" /><text x="446.00" y="65.00" font-size="15" fill="#111827">Marketplace Fee Revenue</text><line x1="710.00" y1="60.00" x2="738.00" y2="60.00" stroke="#059669" stroke-width="4" /><text x="746.00" y="65.00" font-size="15" fill="#111827">Subscription Revenue</text><line x1="1010.00" y1="60.00" x2="1038.00" y2="60.00" stroke="#7C3AED" stroke-width="4" /><text x="1046.00" y="65.00" font-size="15" fill="#111827">Ad Revenue</text>
</svg>
