<svg xmlns="http://www.w3.org/2000/svg" width="1280" height="720" viewBox="0 0 1280 720">
  <rect width="100%" height="100%" fill="#FFFFFF" />
  <text x="110" y="36" font-size="30" font-weight="700" fill="#111827">Synthetic Revenue Projection (36 Months)</text>
  <text x="110" y="88" font-size="16" fill="#4B5563">Total revenue with marketplace fee, subscription, and ad components</text>
  <text x="32" y="82" font-size="14" fill="#6B7280">Revenue (USD)</text>
  <rect x="110.00" y="100.00" width="1130.00" height="500.00" fill="#FFFFFF" stroke="#D1D5DB" />
  <line x1="110.00" y1="600.00" x2="1240.00" y2="600.00" stroke="#E5E7EB" stroke-width="1" /><text x="96.00" y="605.00" text-anchor="end" font-size="14" fill="#6B7280">$0</text><line x1="110.00" y1="516.67" x2="1240.00" y2="516.67" stroke="#E5E7EB" stroke-width="1" /><text x="96.00" y="521.67" text-anchor="end" font-size="14" fill="#6B7280">$11.1K</text><line x1="110.00" y1="433.33" x2="1240.00" y2="433.33" stroke="#E5E7EB" stroke-width="1" /><text x="96.00" y="438.33" text-anchor="end" font-size="14" fill="#6B7280">$22.1K</text><line x1="110.00" y1="350.00" x2="1240.00" y2="350.00" stroke="#E5E7EB" stroke-width="1" /><text x="96.00" y="355.00" text-anchor="end" font-size="14" fill="#6B7280">$33.2K</text><line x1="110.00" y1="266.67" x2="1240.00" y2="266.67" stroke="#E5E7EB" stroke-width="1" /><text x="96.00" y="271.67" text-anchor="end" font-size="14" fill="#6B7280">$44.3K</text><line x1="110.00" y1="183.33" x2="1240.00" y2="183.33" stroke="#E5E7EB" stroke-width="1" /><text x="96.00" y="188.33" text-anchor="end" font-size="14" fill="#6B7280">$55.4K</text><line x1="110.00" y1="100.00" x2="1240.00" y2="100.00" stroke="#E5E7EB" stroke-width="1" /><text x="96.00" y="105.00" text-anchor="end" font-size="14" fill="#6B7280">$66.4K</text>
  <line x1="110.00" y1="600.00" x2="1240.00" y2="600.00" stroke="#6B7280" stroke-width="1.5" />
  <line x1="110.00" y1="100.00" x2="110.00" y2="600.00" stroke="#6B7280" stroke-width="1.5" />
  <line x1="110.00" y1="600.00" x2="110.00" y2="608.00" stroke="#9CA3AF" stroke-width="1" /><text x="110.00" y="630.00" text-anchor="middle" font-size="13" fill="#6B7280">2026-03</text><line x1="206.86" y1="600.00" x2="206.86" y2="608.00" stroke="#9CA3AF" stroke-width="1" /><text x="206.86" y="630.00" text-anchor="middle" font-size="13" fill="#6B7280">2026-06</text><line x1="303.71" y1="600.00" x2="303.71" y2="608.00" stroke="#9CA3AF" stroke-width="1" /><text x="303.71" y="630.00" text-anchor="middle" font-size="13" fill="#6B7280">2026-09</text><line x1="400.57" y1="600.00" x2="400.57" y2="608.00" stroke="#9CA3AF" stroke-width="1" /><text x="400.57" y="630.00" text-anchor="middle" font-size="13" fill="#6B7280">2026-12</text><line x1="497.43" y1="600.00" x2="497.43" y2="608.00" stroke="#9CA3AF" stroke-width="1" /><text x="497.43" y="630.00" text-anchor="middle" font-size="13" fill="#6B7280">2027-03</text><line x1="594.29" y1="600.00" x2="594.29" y2="608.00" stroke="#9CA3AF" stroke-width="1" /><text x="594.29" y="630.00" text-anchor="middle" font-size="13" fill="#6B7280">2027-06</text><line x1="691.14" y1="600.00" x2="691.14" y2="608.00" stroke="#9CA3AF" stroke-width="1" /><text x="691.14" y="630.00" text-anchor="middle" font-size="13" fill="#6B7280">2027-09</text><line x1="788.00" y1="600.00" x2="788.00" y2="608.00" stroke="#9CA3AF" stroke-width="1" /><text x="788.00" y="630.00" text-anchor="middle" font-size="13" fill="#6B7280">2027-12</text><line x1="884.86" y1="600.00" x2="884.86" y2="608.00" stroke="#9CA3AF" stroke-width="1" /><text x="884.86" y="630.00" text-anchor="middle" font-size="13" fill="#6B7280">2028-03</text><line x1="981.71" y1="600.00" x2="981.71" y2="608.00" stroke="#9CA3AF" stroke-width="1" /><text x="981.71" y="630.00" text-anchor="middle" font-size="13" fill="#6B7280">2028-06</text><line x1="1078.57" y1="600.00" x2="1078.57" y2="608.00" stroke="#9CA3AF" stroke-width="1" /><text x="1078.57" y="630.00" text-anchor="middle" font-size="13" fill="#6B7280">2028-09</text><line x1="1175.43" y1="600.00" x2="1175.43" y2="608.00" stroke="#9CA3AF" stroke-width="1" /><text x="1175.43" y="630.00" text-anchor="middle" font-size="13" fill="#6B7280">2028-12</text><line x1="1240.00" y1="600.00" x2="1240.00" y2="608.00" stroke="#9CA3AF" stroke-width="1" /><text x="1240.00" y="630.00" text-anchor="middle" font-size="13" fill="#6B7280">2029-02</text>
  <path d="M 110.00 598.72 L 142.29 598.38 L 174.57 597.77 L 206.86 597.13 L 239.14 596.28 L 271.43 595.05 L 303.71 593.97 L 336.00 592.14 L 368.29 589.98 L 400.57 586.90 L 432.86 584.60 L 465.14 581.00 L 497.43 571.20 L 529.71 555.77 L 562.00 536.18 L 594.29 520.37 L 626.57 502.10 L 658.86 485.63 L 691.14 465.18 L 723.43 443.57 L 755.71 423.36 L 788.00 367.78 L 820.29 400.93 L 852.57 366.45 L 884.86 354.23 L 917.14 333.81 L 949.43 308.16 L 981.71 297.68 L 1014.00 277.49 L 1046.29 262.58 L 1078.57 261.16 L 1110.86 232.14 L 1143.14 196.93 L 1175.43 145.45 L 1207.71 184.96 L 1240.00 162.94" fill="none" stroke="#2563EB" stroke-width="3" stroke-linecap="round" stroke-linejoin="round" /><path d="M 110.00 600.00 L 142.29 600.00 L 174.57 600.00 L 206.86 600.00 L 239.14 600.00 L 271.43 600.00 L 303.71 600.00 L 336.00 600.00 L 368.29 600.00 L 400.57 600.00 L 432.86 600.00 L 465.14 600.00 L 497.43 593.62 L 529.71 583.11 L 562.00 570.08 L 594.29 560.23 L 626.57 550.56 L 658.86 538.21 L 691.14 527.03 L 723.43 515.11 L 755.71 501.73 L 788.00 461.89 L 820.29 493.16 L 852.57 468.56 L 884.86 463.95 L 917.14 452.06 L 949.43 434.01 L 981.71 424.13 L 1014.00 412.64 L 1046.29 398.92 L 1078.57 399.25 L 1110.86 381.65 L 1143.14 353.35 L 1175.43 313.05 L 1207.71 344.56 L 1240.00 331.86" fill="none" stroke="#DC2626" stroke-width="3" stroke-linecap="round" stroke-linejoin="round" /><path d="M 110.00 599.02 L 142.29 598.74 L 174.57 598.24 L 206.86 597.71 L 239.14 597.01 L 271.43 596.00 L 303.71 595.11 L 336.00 593.57 L 368.29 591.73 L 400.57 589.09 L 432.86 587.15 L 465.14 583.99 L 497.43 581.09 L 529.71 576.84 L 562.00 571.09 L 594.29 565.92 L 626.57 558.47 L 658.86 554.70 L 691.14 546.58 L 723.43 537.90 L 755.71 531.58 L 788.00 517.96 L 820.29 519.02 L 852.57 510.67 L 884.86 503.40 L 917.14 495.58 L 949.43 489.04 L 981.71 488.04 L 1014.00 480.19 L 1046.29 478.69 L 1078.57 476.57 L 1110.86 466.74 L 1143.14 460.25 L 1175.43 449.83 L 1207.71 456.72 L 1240.00 447.92" fill="none" stroke="#059669" stroke-width="3" stroke-linecap="round" stroke-linejoin="round" /><path d="M 110.00 599.70 L 142.29 599.64 L 174.57 599.53 L 206.86 599.42 L 239.14 599.27 L 271.43 599.06 L 303.71 598.87 L 336.00 598.58 L 368.29 598.25 L 400.57 597.81 L 432.86 597.46 L 465.14 597.01 L 497.43 596.49 L 529.71 595.82 L 562.00 595.01 L 594.29 594.22 L 626.57 593.07 L 658.86 592.72 L 691.14 591.56 L 723.43 590.56 L 755.71 590.05 L 788.00 587.93 L 820.29 588.75 L 852.57 587.21 L 884.86 586.88 L 917.14 586.17 L 949.43 585.10 L 981.71 585.50 L 1014.00 584.65 L 1046.29 584.97 L 1078.57 585.34 L 1110.86 583.75 L 1143.14 583.33 L 1175.43 582.57 L 1207.71 583.68 L 1240.00 583.16" fill="none" stroke="#7C3AED" stroke-width="3" stroke-linecap="round" stroke-linejoin="round" />
  <line x1="110.00" y1="60.00" x2="138.00" y2="60.00" stroke="#2563EB" stroke-width="4" /><text x="146.00" y="65.00" font-size="15" fill="#111827">Total Revenue</text><line x1="410.00" y1="60.00" x2="438.00" y2="60.00" stroke="#DC2626" stroke-width="4" /><text x="446.00" y="65.00" font-size="15" fill="#111827">Marketplace Fee Revenue</text><line x1="710.00" y1="60.00" x2="738.00" y2="60.00" stroke="#059669" stroke-width="4" /><text x="746.00" y="65.00" font-size="15" fill="#111827">Subscription Revenue</text><line x1="1010.00" y1="60.00" x2="1038.00" y2="60.00" stroke="#7C3AED" stroke-width="4" /><text x="1046.00" y="65.00" font-size="15" fill="#111827">Ad Revenue</text>
</svg>
